<svg width="177" height="19" viewBox="0 0 177 19" fill="none" xmlns="http://www.w3.org/2000/svg">
<path d="M0.024 18L5.616 2.928C5.888 2.24 6.28 1.736 6.792 1.416C7.304 1.08 7.888 0.912 8.544 0.912C9.216 0.912 9.808 1.072 10.32 1.392C10.848 1.712 11.24 2.216 11.496 2.904L17.112 18H13.968L12.672 14.28H4.368L3.024 18H0.024ZM5.232 11.736H11.808L9.12 3.888C9.056 3.728 8.976 3.608 8.88 3.528C8.8 3.448 8.696 3.408 8.568 3.408C8.44 3.408 8.336 3.456 8.256 3.552C8.176 3.632 8.112 3.744 8.064 3.888L5.232 11.736ZM18.6928 18V9.24C18.6928 8.152 18.9968 7.304 19.6048 6.696C20.2288 6.072 21.0848 5.76 22.1728 5.76H25.1248V8.112H22.6768C22.2928 8.112 21.9888 8.224 21.7648 8.448C21.5568 8.672 21.4528 8.976 21.4528 9.36V18H18.6928ZM32.9428 18C31.6788 18 30.5508 17.728 29.5588 17.184C28.5668 16.64 27.7828 15.912 27.2068 15C26.6308 14.072 26.3428 13.032 26.3428 11.88C26.3428 10.728 26.6308 9.696 27.2068 8.784C27.7828 7.856 28.5668 7.12 29.5588 6.576C30.5508 6.032 31.6788 5.76 32.9428 5.76H34.4308V8.112H32.8948C32.1588 8.112 31.5028 8.28 30.9268 8.616C30.3668 8.936 29.9268 9.384 29.6068 9.96C29.2868 10.536 29.1268 11.176 29.1268 11.88C29.1268 12.584 29.2868 13.224 29.6068 13.8C29.9268 14.376 30.3668 14.832 30.9268 15.168C31.5028 15.488 32.1588 15.648 32.8948 15.648H34.4308V18H32.9428ZM36.8357 18V0.48H39.5957V6.984C40.0917 6.456 40.6677 6.072 41.3237 5.832C41.9797 5.592 42.6437 5.472 43.3157 5.472C44.4357 5.472 45.3877 5.712 46.1717 6.192C46.9717 6.656 47.5797 7.304 47.9957 8.136C48.4117 8.952 48.6197 9.888 48.6197 10.944V18H45.8837V10.968C45.8837 10.344 45.7317 9.8 45.4277 9.336C45.1397 8.856 44.7557 8.488 44.2757 8.232C43.8117 7.96 43.2917 7.824 42.7157 7.824C42.1717 7.824 41.6597 7.952 41.1797 8.208C40.6997 8.464 40.3157 8.824 40.0277 9.288C39.7397 9.752 39.5957 10.28 39.5957 10.872V18H36.8357ZM58.4574 18.288C57.8014 18.288 57.2174 18.128 56.7054 17.808C56.2094 17.488 55.8254 16.976 55.5534 16.272L50.2974 1.2H53.4654L57.9294 15.096C57.9934 15.256 58.0654 15.384 58.1454 15.48C58.2254 15.56 58.3294 15.6 58.4574 15.6C58.5854 15.6 58.6894 15.56 58.7694 15.48C58.8654 15.384 58.9374 15.256 58.9854 15.096L63.5934 1.2H66.6174L61.3614 16.272C61.1214 16.944 60.7374 17.448 60.2094 17.784C59.6974 18.12 59.1134 18.288 58.4574 18.288ZM68.2888 18V5.76H71.0488V18H68.2888ZM69.6568 4.056C69.1768 4.056 68.7608 3.88 68.4088 3.528C68.0568 3.176 67.8808 2.76 67.8808 2.28C67.8808 1.8 68.0568 1.384 68.4088 1.032C68.7608 0.679999 69.1768 0.503999 69.6568 0.503999C70.1528 0.503999 70.5688 0.679999 70.9048 1.032C71.2568 1.384 71.4328 1.8 71.4328 2.28C71.4328 2.76 71.2568 3.176 70.9048 3.528C70.5688 3.88 70.1528 4.056 69.6568 4.056ZM74.3111 18V15.648H80.2151C80.5031 15.648 80.7511 15.584 80.9591 15.456C81.1831 15.328 81.3511 15.16 81.4631 14.952C81.5911 14.744 81.6551 14.528 81.6551 14.304C81.6551 14.048 81.5991 13.824 81.4871 13.632C81.3751 13.44 81.2151 13.288 81.0071 13.176C80.7991 13.048 80.5591 12.984 80.2871 12.984H77.8871C77.1031 12.984 76.4071 12.856 75.7991 12.6C75.1911 12.344 74.7111 11.952 74.3591 11.424C74.0071 10.88 73.8311 10.2 73.8311 9.384C73.8311 8.728 73.9911 8.128 74.3111 7.584C74.6471 7.04 75.0951 6.6 75.6551 6.264C76.2151 5.928 76.8471 5.76 77.5511 5.76H83.2391V8.112H77.8151C77.4471 8.112 77.1431 8.232 76.9031 8.472C76.6631 8.696 76.5431 8.976 76.5431 9.312C76.5431 9.632 76.6631 9.912 76.9031 10.152C77.1431 10.392 77.4631 10.512 77.8631 10.512H80.1911C81.0711 10.512 81.8231 10.648 82.4471 10.92C83.0711 11.192 83.5431 11.6 83.8631 12.144C84.1991 12.688 84.3671 13.376 84.3671 14.208C84.3671 14.88 84.1991 15.512 83.8631 16.104C83.5271 16.68 83.0631 17.144 82.4711 17.496C81.8951 17.832 81.2391 18 80.5031 18H74.3111ZM87.1091 18V5.76H89.8691V18H87.1091ZM88.4771 4.056C87.9971 4.056 87.5811 3.88 87.2291 3.528C86.8771 3.176 86.7011 2.76 86.7011 2.28C86.7011 1.8 86.8771 1.384 87.2291 1.032C87.5811 0.679999 87.9971 0.503999 88.4771 0.503999C88.9731 0.503999 89.3891 0.679999 89.7251 1.032C90.0771 1.384 90.2531 1.8 90.2531 2.28C90.2531 2.76 90.0771 3.176 89.7251 3.528C89.3891 3.88 88.9731 4.056 88.4771 4.056ZM99.0114 18.288C97.7474 18.288 96.6274 18.008 95.6514 17.448C94.6754 16.872 93.8994 16.104 93.3234 15.144C92.7634 14.168 92.4834 13.08 92.4834 11.88C92.4834 10.68 92.7634 9.6 93.3234 8.64C93.8994 7.664 94.6754 6.896 95.6514 6.336C96.6274 5.76 97.7474 5.472 99.0114 5.472C100.259 5.472 101.371 5.76 102.347 6.336C103.323 6.896 104.091 7.656 104.651 8.616C105.227 9.576 105.515 10.664 105.515 11.88C105.515 13.08 105.227 14.168 104.651 15.144C104.091 16.104 103.323 16.872 102.347 17.448C101.371 18.008 100.259 18.288 99.0114 18.288ZM99.0114 15.936C99.7634 15.936 100.419 15.76 100.979 15.408C101.539 15.04 101.971 14.552 102.275 13.944C102.579 13.336 102.731 12.648 102.731 11.88C102.731 11.128 102.579 10.448 102.275 9.84C101.971 9.216 101.539 8.728 100.979 8.376C100.419 8.008 99.7634 7.824 99.0114 7.824C98.2434 7.824 97.5794 8.008 97.0194 8.376C96.4754 8.728 96.0434 9.208 95.7234 9.816C95.4194 10.424 95.2674 11.112 95.2674 11.88C95.2674 12.632 95.4194 13.32 95.7234 13.944C96.0434 14.552 96.4754 15.04 97.0194 15.408C97.5794 15.76 98.2434 15.936 99.0114 15.936ZM108.133 18V10.944C108.133 9.888 108.373 8.952 108.853 8.136C109.333 7.304 110.013 6.656 110.893 6.192C111.773 5.712 112.805 5.472 113.989 5.472C115.173 5.472 116.197 5.712 117.061 6.192C117.941 6.656 118.621 7.304 119.101 8.136C119.581 8.952 119.821 9.888 119.821 10.944V18H117.085V10.968C117.085 10.344 116.941 9.8 116.653 9.336C116.365 8.856 115.981 8.488 115.501 8.232C115.037 7.96 114.525 7.824 113.965 7.824C113.421 7.824 112.909 7.96 112.429 8.232C111.965 8.488 111.589 8.856 111.301 9.336C111.029 9.8 110.893 10.344 110.893 10.968V18H108.133ZM128.101 18.288C126.933 18.288 125.925 18 125.077 17.424C124.229 16.848 123.573 16.08 123.109 15.12C122.661 14.144 122.437 13.072 122.437 11.904C122.437 10.688 122.693 9.6 123.205 8.64C123.733 7.664 124.477 6.896 125.437 6.336C126.413 5.76 127.573 5.472 128.917 5.472C130.245 5.472 131.373 5.76 132.301 6.336C133.245 6.896 133.965 7.664 134.461 8.64C134.973 9.6 135.229 10.672 135.229 11.856V18H132.469V15.72H132.421C132.181 16.168 131.869 16.592 131.485 16.992C131.101 17.376 130.629 17.688 130.069 17.928C129.509 18.168 128.853 18.288 128.101 18.288ZM128.845 15.936C129.565 15.936 130.189 15.76 130.717 15.408C131.261 15.04 131.685 14.552 131.989 13.944C132.293 13.32 132.437 12.624 132.421 11.856C132.421 11.088 132.277 10.408 131.989 9.816C131.701 9.208 131.293 8.728 130.765 8.376C130.237 8.008 129.605 7.824 128.869 7.824C128.101 7.824 127.445 8.008 126.901 8.376C126.357 8.728 125.941 9.208 125.653 9.816C125.365 10.424 125.221 11.112 125.221 11.88C125.221 12.632 125.365 13.32 125.653 13.944C125.941 14.552 126.349 15.04 126.877 15.408C127.421 15.76 128.077 15.936 128.845 15.936ZM138.435 18V9.24C138.435 8.152 138.739 7.304 139.347 6.696C139.971 6.072 140.827 5.76 141.915 5.76H144.867V8.112H142.419C142.035 8.112 141.731 8.224 141.507 8.448C141.299 8.672 141.195 8.976 141.195 9.36V18H138.435ZM146.781 18V5.76H149.541V18H146.781ZM148.149 4.056C147.669 4.056 147.253 3.88 146.901 3.528C146.549 3.176 146.373 2.76 146.373 2.28C146.373 1.8 146.549 1.384 146.901 1.032C147.253 0.679999 147.669 0.503999 148.149 0.503999C148.645 0.503999 149.061 0.679999 149.397 1.032C149.749 1.384 149.925 1.8 149.925 2.28C149.925 2.76 149.749 3.176 149.397 3.528C149.061 3.88 148.645 4.056 148.149 4.056ZM159.043 18C157.667 18 156.459 17.744 155.419 17.232C154.395 16.704 153.595 15.984 153.019 15.072C152.443 14.144 152.155 13.08 152.155 11.88C152.155 10.616 152.411 9.504 152.923 8.544C153.435 7.584 154.139 6.832 155.035 6.288C155.931 5.744 156.963 5.472 158.131 5.472C159.443 5.472 160.523 5.752 161.371 6.312C162.219 6.872 162.843 7.624 163.243 8.568C163.659 9.512 163.867 10.568 163.867 11.736C163.867 11.896 163.859 12.08 163.843 12.288C163.827 12.496 163.803 12.656 163.771 12.768H155.083C155.179 13.408 155.411 13.944 155.779 14.376C156.147 14.792 156.611 15.112 157.171 15.336C157.731 15.544 158.355 15.648 159.043 15.648H162.331V18H159.043ZM155.059 10.896H161.107C161.091 10.592 161.043 10.288 160.963 9.984C160.899 9.68 160.787 9.392 160.627 9.12C160.483 8.848 160.291 8.616 160.051 8.424C159.827 8.216 159.555 8.056 159.235 7.944C158.915 7.816 158.547 7.752 158.131 7.752C157.651 7.752 157.227 7.848 156.859 8.04C156.491 8.216 156.179 8.456 155.923 8.76C155.667 9.048 155.467 9.384 155.323 9.768C155.195 10.136 155.107 10.512 155.059 10.896ZM166.397 18V15.648H172.301C172.589 15.648 172.837 15.584 173.045 15.456C173.269 15.328 173.437 15.16 173.549 14.952C173.677 14.744 173.741 14.528 173.741 14.304C173.741 14.048 173.685 13.824 173.573 13.632C173.461 13.44 173.301 13.288 173.093 13.176C172.885 13.048 172.645 12.984 172.373 12.984H169.973C169.189 12.984 168.493 12.856 167.885 12.6C167.277 12.344 166.797 11.952 166.445 11.424C166.093 10.88 165.917 10.2 165.917 9.384C165.917 8.728 166.077 8.128 166.397 7.584C166.733 7.04 167.181 6.6 167.741 6.264C168.301 5.928 168.933 5.76 169.637 5.76H175.325V8.112H169.901C169.533 8.112 169.229 8.232 168.989 8.472C168.749 8.696 168.629 8.976 168.629 9.312C168.629 9.632 168.749 9.912 168.989 10.152C169.229 10.392 169.549 10.512 169.949 10.512H172.277C173.157 10.512 173.909 10.648 174.533 10.92C175.157 11.192 175.629 11.6 175.949 12.144C176.285 12.688 176.453 13.376 176.453 14.208C176.453 14.88 176.285 15.512 175.949 16.104C175.613 16.68 175.149 17.144 174.557 17.496C173.981 17.832 173.325 18 172.589 18H166.397Z" fill="black"/>
</svg>
